<?xml version="1.0" encoding="UTF-8" standalone="no"?>
<svg xmlns:svg="http://www.w3.org/2000/svg" 
  xmlns="http://www.w3.org/2000/svg" version="1.0" style="isolation:isolate" viewBox="0 0 435 482" width="435" height="482" id="svg2">
  <path d="M 262.5 241.5 A 47 47 0 1 1  168.5,241.5 A 47 47 0 1 1  262.5 241.5 z M 262.5 335.5 A 47 47 0 1 1  168.5,335.5 A 47 47 0 1 1  262.5 335.5 z M 262.5 147.5 A 47 47 0 1 1  168.5,147.5 A 47 47 0 1 1  262.5 147.5 z M 180.5 194.5 A 47 47 0 1 1  86.5,194.5 A 47 47 0 1 1  180.5 194.5 z M 344.5 194.5 A 47 47 0 1 1  250.5,194.5 A 47 47 0 1 1  344.5 194.5 z M 180.5 288.5 A 47 47 0 1 1  86.5,288.5 A 47 47 0 1 1  180.5 288.5  M 344.5 288.5 A 47 47 0 1 1  250.5,288.5 A 47 47 0 1 1  344.5 288.5  M 262.5 429.5 A 47 47 0 1 1  168.5,429.5 A 47 47 0 1 1  262.5 429.5  M 262.5 53.5 A 47 47 0 1 1  168.5,53.5 A 47 47 0 1 1  262.5 53.5  M 98.5 147.5 A 47 47 0 1 1  4.5,147.5 A 47 47 0 1 1  98.5 147.5  M 426.5 147.5 A 47 47 0 1 1  332.5,147.5 A 47 47 0 1 1  426.5 147.5  M 98.5 335.5 A 47 47 0 1 1  4.5,335.5 A 47 47 0 1 1  98.5 335.5  M 426.5 335.5 A 47 47 0 1 1  332.5,335.5 A 47 47 0 1 1  426.5 335.5" style="fill:none;stroke:black" />
</svg>
