<?xml version="1.0" encoding="UTF-8" standalone="no"?>
<svg xmlns:svg="http://www.w3.org/2000/svg" 
  xmlns="http://www.w3.org/2000/svg" version="1.0" style="isolation:isolate" viewBox="0 0 435 482" width="435" height="482" id="svg2">
  <path d="M 215.5,53.5 L 379.5,147.5 L 379.5,335.5 L 215.5,429.5 L 51.5,335.5 L 51.5,147.5 L 215.5,53.5 z M 215.5,53.5 L 51.5,335.5 L 379.5,335.5 L 215.5,53.5 z M 51.5,147.5 L 215.5,429.5 L 379.5,147.5 L 51.5,147.5 z M 215.5,147.5 L 133.5,194.5 L 133.5,288.5 L 215.5,335.5 L 297.5,288.5 L 297.5,194.5 L 215.5,147.5 z M 133.5,288.5 L 215.5,53.5 L 297.5,288.5 L 133.5,288.5 z M 215.5,429.5 L 133.5,194.5 L 297.5,194.5 L 215.5,429.5 z M 51.5,147.5 L 379.5,335.5 M 51.5,335.5 L 379.5,147.5 M 215.5,53.5 L 215.5,429.5 M 51.5,335.5 L 215.5,147.5 L 297.5,288.5 L 51.5,335.5 z M 379.5,335.5 L 215.5,147.5 L 133.5,288.5 L 379.5,335.5 z M 379.5,147.5 L 133.5,194.5 L 215.5,335.5 L 379.5,147.5 z M 51.5,147.5 L 215.5,335.5 L 297.5,194.5 L 51.5,147.5 z " style="fill:none;stroke:black" id="path1933" />
</svg>
